Coordinates
version=1
nRows=5
nColumns=40
inDegrees=yes
endheader
time	pelvis_tilt	pelvis_list	pelvis_rotation	pelvis_tx	pelvis_ty	pelvis_tz	hip_flexion_r	hip_adduction_r	hip_rotation_r	knee_angle_r	knee_angle_r_beta	ankle_angle_r	subtalar_angle_r	mtp_angle_r	hip_flexion_l	hip_adduction_l	hip_rotation_l	knee_angle_l	knee_angle_l_beta	ankle_angle_l	subtalar_angle_l	mtp_angle_l	lumbar_extension	lumbar_bending	lumbar_rotation	arm_flex_r	arm_add_r	arm_rot_r	elbow_flex_r	pro_sup_r	wrist_flex_r	wrist_dev_r	arm_flex_l	arm_add_l	arm_rot_l	elbow_flex_l	pro_sup_l	wrist_flex_l	wrist_dev_l
1760624573.60400009	     10.29021084	      1.14351807	      1.21643908	      0.02653530	      0.89897276	     -0.00974053	     80.00000000	     -7.00000000	      0.00000000	     80.00000000	      1.39626340	      0.00000000	      0.00000000	      0.00000000	     80.00000000	     -7.00000000	      0.00000000	     80.00000000	      1.39626340	      0.00000000	      0.00000000	      0.00000000	    -11.24429365	     -1.22674521	      2.89222234	      2.58944699	     -1.01705082	     -1.12221373	      0.99560513	      0.00000000	     63.85408597	    -24.99999983	      2.14493580	     -0.67677600	      3.10458463	     34.62989355	      0.00000000	    -32.98898641	     -4.84959790
1760624573.63800001	     10.26740805	      1.09884892	      1.23452798	      0.02654779	      0.89904616	     -0.00999025	     80.00000000	     -7.00000000	      0.00000000	     80.00000000	      1.39626340	      0.00000000	      0.00000000	      0.00000000	     80.00000000	     -7.00000000	      0.00000000	     80.00000000	      1.39626340	      0.00000000	      0.00000000	      0.00000000	    -11.27795323	     -1.18557866	      2.88125114	      2.65419724	     -1.00152132	     -1.08438362	      0.98587985	      0.00000000	     63.93238605	    -24.99999983	      2.19195810	     -0.65123771	      3.16839754	     34.69666552	      0.00000000	    -33.07662265	     -4.85178342
1760624573.67100000	     10.23210468	      0.99418442	      1.30871732	      0.02665538	      0.89890865	     -0.01008345	     80.00000000	     -7.00000000	      0.00000000	     80.00000000	      1.39626340	      0.00000000	      0.00000000	      0.00000000	     80.00000000	     -7.00000000	      0.00000000	     80.00000000	      1.39626340	      0.00000000	      0.00000000	      0.00000000	    -11.21594988	     -1.07659268	      2.81831399	      2.60834901	     -0.97318958	     -1.02632200	      1.01940411	      0.00000000	     64.14703057	    -24.99999983	      2.16714508	     -0.60675315	      3.15123610	     34.53760183	      0.00000000	    -32.88490089	     -4.79899743
1760624573.70499992	     10.23749381	      0.98413649	      1.32540985	      0.02617195	      0.89867269	     -0.01019861	     80.00000000	     -7.00000000	      0.00000000	     80.00000000	      1.39626340	      0.00000000	      0.00000000	      0.00000000	     80.00000000	     -7.00000000	      0.00000000	     80.00000000	      1.39626340	      0.00000000	      0.00000000	      0.00000000	    -11.21405500	     -1.08375148	      2.82769870	      2.58827594	     -0.91825586	     -1.00273431	      1.07864972	      0.00000000	     64.14949856	    -24.99999983	      2.17163418	     -0.54734045	      3.15191296	     34.50541386	      0.00000000	    -32.90247797	     -4.81635718
1760624573.73799992	     10.22408001	      0.97862666	      1.31458529	      0.02615125	      0.89867585	     -0.01031274	     80.00000000	     -7.00000000	      0.00000000	     80.00000000	      1.39626340	      0.00000000	      0.00000000	      0.00000000	     80.00000000	     -7.00000000	      0.00000000	     80.00000000	      1.39626340	      0.00000000	      0.00000000	      0.00000000	    -11.23354302	     -1.07936307	      2.80895608	      2.60154255	     -0.87947104	     -0.88955562	      1.13461292	      0.00000000	     64.15380059	    -24.99999983	      2.15701398	     -0.48439966	      3.23662083	     34.53551558	      0.00000000	    -32.88529722	     -4.82486980
